<?xml version="1.0" encoding="UTF-8" standalone="no"?>
<!DOCTYPE svg PUBLIC "-//W3C//DTD SVG 1.1//EN" "http://www.w3.org/Graphics/SVG/1.1/DTD/svg11.dtd">
<svg width="100%" height="100%" viewBox="0 0 381 361" version="1.1" xmlns="http://www.w3.org/2000/svg" xmlns:xlink="http://www.w3.org/1999/xlink" xml:space="preserve" xmlns:serif="http://www.serif.com/" style="fill-rule:evenodd;clip-rule:evenodd;stroke-linecap:round;stroke-linejoin:round;stroke-miterlimit:1.5;">
    <g transform="matrix(1,0,0,1,-2580.819618,-1949.446468)">
        <g transform="matrix(1,0,0,1,773.804097,-11.963114)">
            <path d="M2039.167,2089.49L2096.251,2077.997" style="fill:none;stroke:rgb(206,196,188);stroke-width:8.65px;"/>
        </g>
        <g transform="matrix(1,0,0,1,773.804097,-11.963114)">
            <path d="M2028.855,2079.139L2038.535,2033.268" style="fill:none;stroke:rgb(206,196,188);stroke-width:8.65px;"/>
        </g>
        <g transform="matrix(1,0,0,1,773.804097,-11.963114)">
            <path d="M1999.225,2183.566L1992.271,2138.374" style="fill:none;stroke:rgb(206,196,188);stroke-width:8.65px;"/>
        </g>
        <g transform="matrix(1,0,0,1,748.140133,-0.08261)">
            <path d="M2089.355,2125.379L2128.178,2140.441" style="fill:none;stroke:rgb(206,196,188);stroke-width:8.65px;"/>
        </g>
        <g transform="matrix(1,0,0,1,773.804097,-11.963114)">
            <path d="M1909.377,2108.694L1929.843,2130.274" style="fill:none;stroke:rgb(206,196,188);stroke-width:8.65px;"/>
        </g>
        <g transform="matrix(1,0,0,1,1263.603946,-26.117386)">
            <circle cx="1372.317" cy="2175.867" r="12.656" style="fill:none;stroke:rgb(61,88,202);stroke-width:13.63px;"/>
        </g>
        <g transform="matrix(1,0,0,1,1262.186775,-105.631363)">
            <circle cx="1372.317" cy="2175.867" r="12.656" style="fill:none;stroke:rgb(61,88,202);stroke-width:13.63px;"/>
        </g>
        <g transform="matrix(1,0,0,1,1445.598361,-166.023432)">
            <circle cx="1372.317" cy="2175.867" r="12.656" style="fill:none;stroke:rgb(61,88,202);stroke-width:13.63px;"/>
        </g>
        <g transform="matrix(1,0,0,1,1457.562811,82.022163)">
            <circle cx="1372.317" cy="2175.867" r="12.656" style="fill:none;stroke:rgb(61,88,202);stroke-width:13.63px;"/>
        </g>
        <g transform="matrix(0.657538,0,0,0.657538,1909.697237,729.677578)">
            <circle cx="1372.317" cy="2175.867" r="12.656" style="fill:none;stroke:rgb(61,88,202);stroke-width:11.25px;"/>
        </g>
        <g transform="matrix(1,0,0,1,773.804097,-11.963114)">
            <path d="M1929.037,2190.271L1936.883,2150.955" style="fill:none;stroke:rgb(61,88,202);stroke-width:6.15px;"/>
        </g>
        <g transform="matrix(1,0,0,1,773.804097,-11.963114)">
            <path d="M1938.331,2198.815L1989.729,2199.544" style="fill:none;stroke:rgb(61,88,202);stroke-width:6.15px;"/>
        </g>
        <g transform="matrix(1.131395,0.152471,0.152471,1.176927,170.550519,-693.679682)">
            <path d="M2014.463,2193.1L2040.557,2236.034" style="fill:none;stroke:rgb(61,88,202);stroke-width:4.71px;"/>
        </g>
        <g transform="matrix(1,0,0,1,773.804097,-11.963114)">
            <path d="M2062.762,2207.288L2108.196,2165.867" style="fill:none;stroke:rgb(61,88,202);stroke-width:6.15px;"/>
        </g>
        <g transform="matrix(1,0,0,1,773.804097,-11.963114)">
            <path d="M2056.181,2223.906L2059.005,2256.69" style="fill:none;stroke:rgb(61,88,202);stroke-width:6.15px;"/>
        </g>
        <g transform="matrix(1,0,0,1,773.804097,-11.963114)">
            <path d="M2101.185,2062.225L2057.393,2025.254" style="fill:none;stroke:rgb(61,88,202);stroke-width:6.15px;"/>
        </g>
        <g transform="matrix(1,0,0,1,773.804097,-11.963114)">
            <path d="M2031.48,2018.787L1946.099,2011.468" style="fill:none;stroke:rgb(61,88,202);stroke-width:6.15px;"/>
        </g>
        <g transform="matrix(1,0,0,1,773.804097,-11.963114)">
            <path d="M1921.513,2019.575L1858.221,2068.747" style="fill:none;stroke:rgb(61,88,202);stroke-width:6.15px;"/>
        </g>
        <g transform="matrix(1,0,0,1,773.804097,-11.963114)">
            <path d="M1855.14,2096.569L1859.382,2148.425" style="fill:none;stroke:rgb(61,88,202);stroke-width:6.15px;"/>
        </g>
        <path d="M2788.085,2176.97L2804.217,2166.601" style="fill:none;stroke:rgb(61,88,202);stroke-width:6.15px;"/>
        <g transform="matrix(1,0,0,1,773.804097,-11.963114)">
            <path d="M1873.82,2169.236L1916.054,2193.116" style="fill:none;stroke:rgb(61,88,202);stroke-width:6.15px;"/>
        </g>
        <g transform="matrix(1,0,0,1,1510.375551,-114.453888)">
            <circle cx="1372.317" cy="2175.867" r="12.656" style="fill:none;stroke:rgb(61,88,202);stroke-width:13.63px;"/>
        </g>
        <g transform="matrix(1,0,0,1,1515.531404,-33.249266)">
            <circle cx="1372.317" cy="2175.867" r="12.656" style="fill:none;stroke:rgb(61,88,202);stroke-width:13.63px;"/>
        </g>
        <g transform="matrix(1,0,0,1,1404.064927,8.625928)">
            <circle cx="1372.317" cy="2175.867" r="12.656" style="fill:none;stroke:rgb(61,88,202);stroke-width:13.63px;"/>
        </g>
        <g transform="matrix(1,0,0,1,773.804097,-11.963114)">
            <path d="M2116.25,2140.953L2110.678,2087.271" style="fill:none;stroke:rgb(61,88,202);stroke-width:6.15px;"/>
        </g>
        <g transform="matrix(1,0,0,1,1342.068089,-49.543605)">
            <circle cx="1372.317" cy="2175.867" r="12.656" style="fill:none;stroke:rgb(61,88,202);stroke-width:13.63px;"/>
        </g>
        <g>
            <g transform="matrix(0.657538,0,0,0.657538,1829.261519,629.184647)">
                <circle cx="1372.317" cy="2175.867" r="12.656" style="fill:none;stroke:rgb(206,196,188);stroke-width:13.15px;"/>
            </g>
            <g transform="matrix(0.657538,0,0,0.657538,1775.006886,658.338945)">
                <circle cx="1372.317" cy="2175.867" r="12.656" style="fill:none;stroke:rgb(206,196,188);stroke-width:13.15px;"/>
            </g>
            <g transform="matrix(0.657538,0,0,0.657538,1861.687544,687.021137)">
                <circle cx="1372.317" cy="2175.867" r="12.656" style="fill:none;stroke:rgb(206,196,188);stroke-width:13.15px;"/>
            </g>
            <g transform="matrix(0.657538,0,0,0.657538,1927.449301,689.6351)">
                <circle cx="1372.317" cy="2175.867" r="12.656" style="fill:none;stroke:rgb(206,196,188);stroke-width:13.15px;"/>
            </g>
            <g transform="matrix(1,0,0,1,1428.298416,-94.86587)">
                <circle cx="1372.317" cy="2175.867" r="12.656" style="fill:none;stroke:rgb(206,196,188);stroke-width:13.63px;"/>
            </g>
            <g transform="matrix(0.707241,0,0,0.707241,1859.250451,663.779344)">
                <circle cx="1372.317" cy="2175.867" r="12.656" style="fill:none;stroke:rgb(206,196,188);stroke-width:12.22px;"/>
            </g>
            <g transform="matrix(1,0,0,1,773.804097,-11.963114)">
                <path d="M1938.82,2024.743L1955.557,2063.487" style="fill:none;stroke:rgb(206,196,188);stroke-width:8.65px;"/>
            </g>
            <g transform="matrix(1,0,0,1,1334.70309,-175.778164)">
                <circle cx="1372.317" cy="2175.867" r="12.656" style="fill:none;stroke:rgb(206,196,188);stroke-width:13.63px;"/>
            </g>
            <g transform="matrix(1,0,0,1,1327.558179,14.991602)">
                <circle cx="1372.317" cy="2175.867" r="12.656" style="fill:none;stroke:rgb(206,196,188);stroke-width:13.63px;"/>
            </g>
        </g>
        <g transform="matrix(0.847121,0,0,0.924817,410.980975,159.516456)">
            <rect x="2561.426" y="1935.441" width="449.24" height="389.686" style="fill:none;"/>
        </g>
    </g>
</svg>
